# xmcd
#
# Track frame offsets:
#	182
#	32470
#	86222
#	106530
#	129175
#	178015
#
# Disc length: 2802 seconds
#
# Revision: 0
# Processed by: cddbd v1.4PL0 Copyright (c) Steve Scherf et al.
# Submitted via: EasyCDDAExtractor 5.0.2.1
#
DISCID=3c0af006
DTITLE=Eric Clapton - Live New York City 1992 [CD 1)
DYEAR=1992
DGENRE=Blues
TTITLE0=Tearing Us Apart
TTITLE1=Old Love
TTITLE2=The Circus Left Town
TTITLE3=Tears In Heaven
TTITLE4=Before You Accuse Me
TTITLE5=Badge
EXTD=
EXTT0=
EXTT1=
EXTT2=
EXTT3=
EXTT4=
EXTT5=
PLAYORDER=
